
<svg
   version="1.1"
   id="svg9"
   width="97.279999"
   height="100.8"
   viewBox="0 0 97.279999 100.8"
   sodipodi:docname="newLogo.svg"
   inkscape:version="1.1.2 (0a00cf5339, 2022-02-04, custom)"
   xmlns:inkscape="http://www.inkscape.org/namespaces/inkscape"
   xmlns:sodipodi="http://sodipodi.sourceforge.net/DTD/sodipodi-0.dtd"
   xmlns="http://www.w3.org/2000/svg"
   xmlns:svg="http://www.w3.org/2000/svg">
  <defs
     id="defs13" />
  <sodipodi:namedview
     id="namedview11"
     pagecolor="#ffffff"
     bordercolor="#666666"
     borderopacity="1.0"
     inkscape:pageshadow="2"
     inkscape:pageopacity="0.0"
     inkscape:pagecheckerboard="0"
     showgrid="false"
     inkscape:zoom="11.398809"
     inkscape:cx="57.242822"
     inkscape:cy="29.345171"
     inkscape:window-width="1280"
     inkscape:window-height="1371"
     inkscape:window-x="20"
     inkscape:window-y="20"
     inkscape:window-maximized="0"
     inkscape:current-layer="g15" />
  <g
     inkscape:groupmode="layer"
     inkscape:label="Image"
     id="g15">
    <g
       id="g189"
       transform="translate(-0.54008001,0.06339749)">
      <path
         style="fill:#8e6cce;stroke-width:0.32"
         d="M 0.42424938,50.460999 V 0.0609987 H 49.064249 97.704248 V 50.460999 100.861 H 49.064249 0.42424938 Z m 53.41362862,30.48 c 5.433817,-2.901395 12.938774,-9.408419 16.827715,-14.590135 3.453222,-4.601155 6.05256,-10.299318 7.248502,-15.889865 0.225901,-1.056 0.411501,-3.936 0.412445,-6.4 0.0013,-3.599261 -0.134688,-4.98328 -0.692112,-7.04 C 75.938585,30.76387 72.642303,25.70085 67.795337,21.908359 54.096764,11.189963 34.271679,15.261117 25.887482,30.514291 c -2.544358,4.628893 -3.568555,9.358705 -3.297226,15.226817 0.54231,11.728716 6.943106,22.562422 18.441695,31.213609 6.929888,5.213837 9.189571,5.917242 12.805927,3.986282 z M 47.523682,79.865488 C 42.055916,77.052848 34.38439,70.242759 30.503774,64.756743 25.675035,57.930372 23.715589,51.952685 23.719847,44.060999 c 0.0027,-5.036333 0.660184,-7.895783 2.795922,-12.16 2.6481,-5.287202 6.427094,-9.1156 11.671795,-11.824381 4.398365,-2.271667 7.006893,-2.880188 12.316685,-2.873252 5.207353,0.0068 7.105513,0.419923 11.52,2.507249 6.639571,3.139424 11.461433,8.611873 13.983648,15.870384 1.04055,2.994525 1.056256,3.123769 1.049897,8.64 -0.0059,5.114841 -0.08291,5.877232 -0.889027,8.8 -1.133078,4.108253 -3.491238,8.868873 -6.115882,12.346649 -4.973468,6.59008 -16.273123,15.61234 -19.595766,15.646324 -0.37792,0.0039 -1.697968,-0.512954 -2.933437,-1.148484 z M 46.113046,66.122855 c 0.864166,-0.605287 0.934489,-2.194698 0.229421,-5.185143 -1.539242,-6.52847 -6.675876,-11.256659 -13.348388,-12.286976 -1.928679,-0.297814 -2.65726,-0.296182 -3.323642,0.0075 -0.851436,0.38794 -0.853086,0.39569 -0.690641,3.244724 0.13764,2.41399 0.339524,3.22791 1.304828,5.260569 2.309686,4.863539 6.735203,8.251338 11.908675,9.116266 2.453273,0.410153 3.150003,0.382265 3.919747,-0.156883 z M 41.064249,64.273236 C 35.500147,62.729725 30.908158,57.429911 30.730234,52.346298 l -0.06598,-1.885299 1.999117,0.03091 c 5.725213,0.08849 11.969545,6.354877 12.052608,12.095181 l 0.02829,1.95392 -1.12,0.06585 c -0.616,0.03622 -1.768,-0.113907 -2.56,-0.333613 z m 19.351926,1.64751 c 3.662157,-0.930426 8.014634,-4.382035 9.840458,-7.803702 1.128176,-2.114247 1.847616,-4.930311 1.847616,-7.23202 0,-1.555488 -0.106608,-1.898563 -0.686388,-2.208851 -0.888204,-0.475353 -3.968448,-0.136982 -6.496345,0.713639 -6.18657,2.081734 -10.75569,8.368502 -10.732368,14.766937 0.0053,1.458183 0.213085,1.944941 0.955101,2.237607 0.586806,0.231446 3.541635,-0.034 5.271926,-0.47361 z m -4.411593,-1.657914 c -0.311143,-0.810825 0.394569,-4.022307 1.309654,-5.959836 0.925398,-1.95937 3.073837,-4.41513 5.056547,-5.779866 2.58624,-1.78015 7.578672,-2.886339 8.005584,-1.773821 0.308112,0.802922 -0.490035,4.146298 -1.46479,6.135917 -1.915159,3.909114 -6.602819,7.258445 -10.768103,7.693805 -1.615993,0.168902 -1.972995,0.116128 -2.138892,-0.316199 z"
         id="path203" />
      <path
         style="fill:#5ca4a6;stroke-width:0.32"
         d="M 0.42424938,50.460999 V 0.0609987 H 49.064249 97.704248 V 50.460999 100.861 H 49.064249 0.42424938 Z M 54.664249,80.974096 c 5.603344,-3.15576 12.311875,-9.081916 16.363174,-14.454844 2.910451,-3.859904 5.591283,-9.237978 6.728534,-13.498253 0.758493,-2.841399 0.857248,-3.809626 0.881255,-8.64 0.02378,-4.785744 -0.06203,-5.747885 -0.713565,-8 -2.854406,-9.866691 -10.454682,-17.343135 -20.379398,-20.047357 -2.086567,-0.568534 -3.418096,-0.696642 -7.2,-0.692722 -4.112707,0.0043 -4.967283,0.103234 -7.52,0.870908 -3.880301,1.166918 -7.014822,2.782722 -10.04233,5.176688 -7.67808,6.071349 -11.547507,15.39903 -10.587574,25.522515 1.123802,11.851664 7.967276,22.480675 20.035626,31.118534 6.553987,4.690983 8.184774,5.037821 12.434278,2.644531 z M 46.635324,78.858157 C 38.740371,74.1081 31.183649,66.424157 27.837179,59.74354 23.671554,51.427626 22.919619,41.486247 25.901246,34.14842 c 3.460848,-8.5172 11.146907,-14.753174 20.110389,-16.316274 3.474623,-0.605924 5.016649,-0.613279 8.492614,-0.04051 3.364448,0.554394 5.228131,1.177807 8.355449,2.79495 6.281498,3.248174 11.078759,9.244612 13.147834,16.434413 0.635629,2.208733 0.732653,3.240579 0.707094,7.52 -0.02566,4.295273 -0.143584,5.387849 -0.879955,8.152486 -2.618992,9.832733 -10.88167,19.827687 -21.790217,26.358541 -3.054861,1.828918 -4.092221,1.801776 -7.40913,-0.193869 z M 46.113046,66.122855 c 0.864166,-0.605287 0.934489,-2.194698 0.229421,-5.185143 -1.539242,-6.52847 -6.675876,-11.256659 -13.348388,-12.286976 -1.928679,-0.297814 -2.65726,-0.296182 -3.323642,0.0075 -0.851436,0.38794 -0.853086,0.39569 -0.690641,3.244724 0.13764,2.41399 0.339524,3.22791 1.304828,5.260569 2.309686,4.863539 6.735203,8.251338 11.908675,9.116266 2.453273,0.410153 3.150003,0.382265 3.919747,-0.156883 z M 41.064249,64.273236 C 35.500147,62.729725 30.908158,57.429911 30.730234,52.346298 l -0.06598,-1.885299 1.999117,0.03091 c 5.725213,0.08849 11.969545,6.354877 12.052608,12.095181 l 0.02829,1.95392 -1.12,0.06585 c -0.616,0.03622 -1.768,-0.113907 -2.56,-0.333613 z m 19.351926,1.64751 c 3.662157,-0.930426 8.014634,-4.382035 9.840458,-7.803702 1.128176,-2.114247 1.847616,-4.930311 1.847616,-7.23202 0,-1.555488 -0.106608,-1.898563 -0.686388,-2.208851 -0.888204,-0.475353 -3.968448,-0.136982 -6.496345,0.713639 -6.18657,2.081734 -10.75569,8.368502 -10.732368,14.766937 0.0053,1.458183 0.213085,1.944941 0.955101,2.237607 0.586806,0.231446 3.541635,-0.034 5.271926,-0.47361 z m -4.411593,-1.657914 c -0.311143,-0.810825 0.394569,-4.022307 1.309654,-5.959836 0.925398,-1.95937 3.073837,-4.41513 5.056547,-5.779866 2.58624,-1.78015 7.578672,-2.886339 8.005584,-1.773821 0.308112,0.802922 -0.490035,4.146298 -1.46479,6.135917 -1.915159,3.909114 -6.602819,7.258445 -10.768103,7.693805 -1.615993,0.168902 -1.972995,0.116128 -2.138892,-0.316199 z"
         id="path201" />
      <path
         style="fill:#5b3b9d;stroke-width:0.32"
         d="M 0.42424938,50.460999 V 0.0609987 H 49.064249 97.704248 V 50.460999 100.861 H 49.064249 0.42424938 Z M 54.664249,80.974096 c 5.603344,-3.15576 12.311875,-9.081916 16.363174,-14.454844 2.910451,-3.859904 5.591283,-9.237978 6.728534,-13.498253 0.758493,-2.841399 0.857248,-3.809626 0.881255,-8.64 0.02378,-4.785744 -0.06203,-5.747885 -0.713565,-8 -2.854406,-9.866691 -10.454682,-17.343135 -20.379398,-20.047357 -2.086567,-0.568534 -3.418096,-0.696642 -7.2,-0.692722 -4.112707,0.0043 -4.967283,0.103234 -7.52,0.870908 -3.880301,1.166918 -7.014822,2.782722 -10.04233,5.176688 -7.67808,6.071349 -11.547507,15.39903 -10.587574,25.522515 1.123802,11.851664 7.967276,22.480675 20.035626,31.118534 6.553987,4.690983 8.184774,5.037821 12.434278,2.644531 z M 46.635324,78.858157 C 38.740371,74.1081 31.183649,66.424157 27.837179,59.74354 23.671554,51.427626 22.919619,41.486247 25.901246,34.14842 c 3.460848,-8.5172 11.146907,-14.753174 20.110389,-16.316274 3.474623,-0.605924 5.016649,-0.613279 8.492614,-0.04051 3.364448,0.554394 5.228131,1.177807 8.355449,2.79495 6.281498,3.248174 11.078759,9.244612 13.147834,16.434413 0.635629,2.208733 0.732653,3.240579 0.707094,7.52 -0.02566,4.295273 -0.143584,5.387849 -0.879955,8.152486 -2.618992,9.832733 -10.88167,19.827687 -21.790217,26.358541 -3.054861,1.828918 -4.092221,1.801776 -7.40913,-0.193869 z m 0.306515,-12.653398 c 0.509491,-0.600007 0.56768,-1.033994 0.394682,-2.94376 -0.691994,-7.639043 -5.801094,-13.477258 -13.157853,-15.035587 -2.878042,-0.609636 -4.318665,-0.605834 -5.203217,0.01373 -0.625065,0.437817 -0.711202,0.782547 -0.711202,2.846297 0,7.852045 6.063808,14.625181 14.203904,15.865443 2.24752,0.342445 3.764122,0.0895 4.473686,-0.746121 z m -5.949286,-2.617101 c -3.009443,-0.828384 -5.919328,-2.974621 -7.614362,-5.616096 -1.080903,-1.684445 -2.233942,-4.938141 -2.233942,-6.303843 0,-0.797059 0.04097,-0.812029 1.741888,-0.63648 5.36752,0.553977 10.730381,5.886317 11.280483,11.216281 l 0.187168,1.813479 -0.924771,-0.02861 c -0.508621,-0.01574 -1.60503,-0.215863 -2.436464,-0.444727 z m 22.359843,1.766294 c 5.727184,-2.837929 9.391853,-8.464182 9.391853,-14.419024 0,-2.654656 -0.41128,-3.043747 -3.160362,-2.989856 -5.885955,0.115386 -11.258777,3.436842 -14.059491,8.69152 -1.81689,3.408832 -2.588093,8.690746 -1.436992,9.84185 0.458534,0.458531 1.009658,0.518755 3.537424,0.386534 2.717642,-0.14215 3.246784,-0.281744 5.727568,-1.511024 z m -6.719795,-1.53472 c -0.31841,-0.515193 0.527853,-3.807065 1.446582,-5.627059 1.922979,-3.809395 6.368979,-6.955683 9.959837,-7.048249 l 1.665229,-0.04292 -0.07556,1.28 c -0.198374,3.360569 -2.555571,7.179977 -5.76103,9.334697 -2.597629,1.746135 -6.715933,2.943501 -7.235059,2.103536 z"
         id="path199" />
      <path
         style="fill:#2a5369;stroke-width:0.32"
         d="M 0.42424938,50.460999 V 0.0609987 H 49.064249 97.704248 V 50.460999 100.861 H 49.064249 0.42424938 Z M 54.004207,81.99154 C 60.605481,78.519069 68.503426,71.359552 72.846495,64.910938 83.189045,49.554256 81.089417,30.804879 67.915522,20.878052 62.706118,16.952648 57.170332,15.100999 50.644137,15.100999 c -8.146733,0 -14.608701,2.563362 -20.167157,8 -6.011841,5.880085 -8.921667,12.765001 -8.92611,21.12 -0.0055,10.296624 4.030763,19.377581 12.311542,27.699213 3.630112,3.648022 5.568707,5.245756 9.838343,8.108486 4.84007,3.245197 7.061251,3.668339 10.303452,1.962842 z M 48.589526,79.385799 C 44.590243,77.23312 38.962518,72.837789 35.519817,69.17818 30.179801,63.501706 27.374448,58.83728 25.802311,53.020999 c -0.770596,-2.850899 -0.866764,-3.776016 -0.88151,-8.48 -0.01857,-5.922893 0.33291,-7.794832 2.193048,-11.68 3.242235,-6.771879 8.474691,-11.343194 15.656896,-13.678586 5.403145,-1.756907 12.086864,-1.533303 17.283341,0.578215 6.474944,2.631005 12.066371,8.314088 14.57166,14.810521 1.392954,3.612055 1.74481,6.158653 1.548781,11.209501 -0.366816,9.451245 -3.642624,16.32031 -11.556758,24.233472 -4.672423,4.671846 -11.187975,9.330259 -13.79352,9.861926 -0.665651,0.135828 -1.350848,-0.0145 -2.234723,-0.490249 z m -1.647687,-13.18104 c 0.509491,-0.600007 0.56768,-1.033994 0.394682,-2.94376 -0.691994,-7.639043 -5.801094,-13.477258 -13.157853,-15.035587 -2.878042,-0.609636 -4.318665,-0.605834 -5.203217,0.01373 -0.625065,0.437817 -0.711202,0.782547 -0.711202,2.846297 0,7.852045 6.063808,14.625181 14.203904,15.865443 2.24752,0.342445 3.764122,0.0895 4.473686,-0.746121 z m -5.949286,-2.617101 c -3.009443,-0.828384 -5.919328,-2.974621 -7.614362,-5.616096 -1.080903,-1.684445 -2.233942,-4.938141 -2.233942,-6.303843 0,-0.797059 0.04097,-0.812029 1.741888,-0.63648 5.36752,0.553977 10.730381,5.886317 11.280483,11.216281 l 0.187168,1.813479 -0.924771,-0.02861 c -0.508621,-0.01574 -1.60503,-0.215863 -2.436464,-0.444727 z m 22.359843,1.766294 c 5.727184,-2.837929 9.391853,-8.464182 9.391853,-14.419024 0,-2.654656 -0.41128,-3.043747 -3.160362,-2.989856 -5.885955,0.115386 -11.258777,3.436842 -14.059491,8.69152 -1.81689,3.408832 -2.588093,8.690746 -1.436992,9.84185 0.458534,0.458531 1.009658,0.518755 3.537424,0.386534 2.717642,-0.14215 3.246784,-0.281744 5.727568,-1.511024 z m -6.719795,-1.53472 c -0.31841,-0.515193 0.527853,-3.807065 1.446582,-5.627059 1.922979,-3.809395 6.368979,-6.955683 9.959837,-7.048249 l 1.665229,-0.04292 -0.07556,1.28 c -0.198374,3.360569 -2.555571,7.179977 -5.76103,9.334697 -2.597629,1.746135 -6.715933,2.943501 -7.235059,2.103536 z"
         id="path197" />
      <path
         style="fill:#2f114f;stroke-width:0.32"
         d="M 0.42424938,50.460999 V 0.0609987 H 49.064249 97.704248 V 50.460999 100.861 H 49.064249 0.42424938 Z M 54.004207,81.99154 C 60.605481,78.519069 68.503426,71.359552 72.846495,64.910938 83.189045,49.554256 81.089417,30.804879 67.915522,20.878052 62.706118,16.952648 57.170332,15.100999 50.644137,15.100999 c -8.146733,0 -14.608701,2.563362 -20.167157,8 -6.011841,5.880085 -8.921667,12.765001 -8.92611,21.12 -0.0055,10.296624 4.030763,19.377581 12.311542,27.699213 3.630112,3.648022 5.568707,5.245756 9.838343,8.108486 4.84007,3.245197 7.061251,3.668339 10.303452,1.962842 z m -5.414681,-2.605741 c -5.181123,-2.788823 -11.247056,-7.841424 -15.324861,-12.7648 -3.61449,-4.363987 -4.048381,-5.679136 -0.967801,-2.933459 5.234079,4.665059 14.378659,6.520982 16.1179,3.271184 0.652045,-1.218362 0.3888,-5.647556 -0.492192,-8.281303 -1.021459,-3.053677 -2.144371,-4.82624 -4.523577,-7.140675 -3.599149,-3.501168 -7.370135,-5.123974 -11.868009,-5.107283 -4.401085,0.01632 -5.040556,0.816214 -4.758006,5.951536 0.155099,2.818918 0.124256,3.103737 -0.258999,2.391673 -1.133122,-2.105276 -1.56812,-4.90623 -1.589015,-10.231673 -0.02325,-5.923991 0.32647,-7.79008 2.188883,-11.68 4.24448,-8.865213 12.437171,-14.344316 22.126966,-14.798063 5.705831,-0.267188 10.209232,0.902169 14.992775,3.893034 5.952159,3.721532 10.547708,10.49203 11.730057,17.28157 0.565552,3.247638 0.221603,10.293638 -0.649408,13.303459 -0.807053,2.788819 -3.553792,8.525363 -5.515942,11.52 -2.849197,4.348454 -11.11497,11.795289 -16.254048,14.643664 -2.487175,1.378537 -3.420666,1.506864 -4.954723,0.681136 z M 58.74909,68.215277 c 6.208631,-0.897795 11.721501,-5.059328 14.073565,-10.623801 0.893478,-2.113776 0.987702,-2.664135 1.013334,-5.918759 0.02624,-3.331661 -0.0241,-3.640611 -0.703718,-4.32 -0.664314,-0.664073 -1.00728,-0.728237 -3.709939,-0.694064 -5.066774,0.06407 -8.908925,1.783533 -12.506243,5.596883 -2.601319,2.757533 -3.778003,5.122452 -4.502298,9.048794 -0.54831,2.972342 -0.443673,4.626669 0.372784,5.893882 0.861856,1.337673 2.18481,1.563337 5.962515,1.017065 z m -0.304854,-6.275273 c -0.494621,-1.288964 2.34793,-5.89146 4.572029,-7.402775 1.164902,-0.791571 3.94774,-1.99623 4.611417,-1.99623 0.516496,0 0.348138,1.659475 -0.317037,3.12496 -0.792687,1.746419 -3.627692,4.749753 -5.284207,5.597961 -1.893236,0.969421 -3.363178,1.246848 -3.582202,0.676084 z M 39.131727,61.202023 c -0.974886,-0.507674 -2.389209,-1.592071 -3.142937,-2.40977 -1.941581,-2.106365 -3.475239,-5.557033 -2.684541,-6.040112 0.615216,-0.375869 4.303859,1.537232 5.796112,3.006135 1.495661,1.472249 3.08727,4.160243 3.305642,5.582723 0.151964,0.989939 -1.218084,0.931785 -3.274276,-0.138976 z m -9.440636,0.277686 c -0.116011,-0.187709 -0.142299,-0.40992 -0.05842,-0.493801 0.08388,-0.08388 0.237782,0.0697 0.342001,0.341289 0.216379,0.563875 0.03195,0.663059 -0.283583,0.152512 z m -2.507309,-4.951081 c -0.308794,-0.804701 -0.2177,-1.012336 0.15953,-0.363629 0.186781,0.3212 0.272192,0.651411 0.189802,0.733801 -0.08239,0.08239 -0.23959,-0.08419 -0.349332,-0.370172 z"
         id="path195" />
      <path
         style="fill:#170128;stroke-width:0.32"
         d="M 0.42424938,50.460999 V 0.0609987 H 49.064249 97.704248 V 50.460999 100.861 H 49.064249 0.42424938 Z M 54.24927,83.70729 c 1.108236,-0.48567 2.583347,-1.288771 3.278019,-1.784666 0.694672,-0.495894 1.409609,-0.901625 1.588745,-0.901625 0.17914,0 0.618772,-0.281184 0.97696,-0.624851 1.271824,-1.220263 1.984512,-1.789495 3.707335,-2.961088 1.879232,-1.277962 6.65952,-6.261351 8.992016,-9.374061 3.871024,-5.165875 6.610675,-11.583655 7.649772,-17.92 0.51818,-3.159821 0.405072,-9.339863 -0.221488,-12.101815 -1.2887,-5.680758 -3.734617,-10.447347 -7.298012,-14.222326 -7.016499,-7.433118 -14.348199,-10.412475 -24.322208,-9.883731 -4.146893,0.219836 -6.104006,0.634073 -9.613805,2.03483 -4.775325,1.905827 -7.439737,3.713782 -10.810826,7.335759 -4.330207,4.652478 -6.067888,7.745902 -7.795337,13.877283 -0.945444,3.355744 -1.647559,12.743462 -1.112128,14.869853 0.187145,0.743222 0.223087,1.739811 0.08179,2.267974 -0.173249,0.647619 -0.07298,1.432144 0.320729,2.509424 0.315026,0.86199 0.49254,1.697078 0.394476,1.85575 -0.225604,0.365034 0.777895,4.951008 1.316634,6.016999 0.222371,0.44 0.641554,1.852669 0.931517,3.139267 0.623638,2.767149 1.791888,4.67767 3.368485,5.508726 0.628265,0.331172 1.481414,0.968852 1.895887,1.417069 0.414473,0.448215 0.918473,0.820791 1.12,0.827943 0.201527,0.0072 0.864974,0.439152 1.474325,0.96 0.609352,0.520848 1.258498,0.946995 1.442546,0.946995 0.184049,0 1.013267,0.361264 1.842704,0.802806 0.82944,0.441546 1.868828,0.832666 2.309756,0.869159 0.440928,0.03649 0.872631,0.251228 0.959341,0.477193 0.08671,0.225962 0.562135,0.410842 1.056496,0.410842 0.494362,0 1.182883,0.19551 1.530042,0.434467 0.347161,0.238957 1.207203,0.617162 1.911203,0.840458 0.704,0.223292 1.501261,0.598281 1.771693,0.833308 0.270429,0.235028 1.206429,0.730128 2.08,1.100221 0.873568,0.370096 1.876307,0.797066 2.228307,0.948826 1.346003,0.580301 1.647053,0.626505 3.265021,0.501104 0.91576,-0.07098 2.57176,-0.526419 3.68,-1.012093 z m -4.072605,-6.659318 c -0.507395,-0.376676 -0.562263,-0.583901 -0.277539,-1.048231 0.376022,-0.613232 1.763536,-0.799161 1.930876,-0.258742 0.0545,0.176 -0.152912,0.647702 -0.460915,1.04823 -0.507037,0.659351 -0.619824,0.683821 -1.192422,0.258743 z m 2.087584,-1.296932 c 0,-0.286268 0.187613,-0.397961 0.48,-0.285763 0.264,0.101309 0.48,0.312787 0.48,0.469959 0,0.157168 -0.216,0.285763 -0.48,0.285763 -0.264,0 -0.48,-0.211482 -0.48,-0.469959 z m 19.89984,-33.920976 c -0.407092,-0.224502 -0.720967,-0.462384 -0.697508,-0.528624 0.116644,-0.329337 -0.76415,-2.124976 -1.34816,-2.748444 -0.364758,-0.389405 -0.823164,-1.026032 -1.018684,-1.41473 -0.195517,-0.388701 -0.743629,-0.835478 -1.218026,-0.992842 -0.474394,-0.157363 -1.402534,-0.780736 -2.062531,-1.38527 -0.66,-0.604534 -1.365539,-1.099155 -1.567869,-1.099155 -0.202329,0 -0.625433,-0.284605 -0.940233,-0.632455 -0.3148,-0.347849 -0.700352,-0.55335 -0.856788,-0.456672 -0.404198,0.249812 -3.29102,-0.757946 -4.184505,-1.460763 -0.412874,-0.324765 -1.465021,-0.66747 -2.338106,-0.761567 -2.744249,-0.295762 -6.668691,-0.88381 -7.66743,-1.148907 -1.570634,-0.416895 -13.016144,-0.183365 -13.88825,0.283372 -0.906268,0.485019 -1.418947,-0.03346 -1.153075,-1.16613 0.220474,-0.939255 2.821495,-3.616878 4.819491,-4.961432 1.921805,-1.293279 5.70144,-2.911224 8.141834,-3.485268 3.858115,-0.907529 12.365021,0.176119 14.442825,1.839794 0.240445,0.192521 0.941175,0.601969 1.557175,0.909882 0.616,0.307914 1.720233,1.045911 2.453856,1.639995 0.733619,0.594083 1.465209,1.080151 1.625753,1.080151 0.160544,0 0.782243,0.684 1.381555,1.52 0.599312,0.836 1.5428,2.024 2.09664,2.64 2.02088,2.247693 3.498384,6.195008 3.922736,10.48 0.250308,2.527552 0.08931,2.725923 -1.5007,1.849065 z"
         id="path193" />
      <path
         style="fill:#05000d;stroke-width:0.32"
         d="M 0.42424938,50.460999 V 0.0609987 H 49.064249 97.704248 V 50.460999 100.861 H 49.064249 0.42424938 Z m 43.35999962,48.48 c 0.528,-0.34968 1.276845,-0.636733 1.664099,-0.637891 0.387255,-0.0013 0.819255,-0.197088 0.96,-0.435396 0.438922,-0.743168 1.522157,-1.131129 3.80929,-1.364297 1.213635,-0.123728 2.566611,-0.47049 3.006611,-0.770583 0.44,-0.300092 1.628,-1.076716 2.64,-1.725833 1.012,-0.649117 1.84,-1.319731 1.84,-1.490256 0,-0.170525 0.603251,-0.964496 1.34056,-1.764378 0.944329,-1.02448 1.520835,-1.407193 1.950489,-1.294835 0.437972,0.114531 1.285508,-0.488387 3.00616,-2.138515 1.317924,-1.263911 2.983795,-2.695309 3.701936,-3.180887 0.718138,-0.485577 1.642647,-1.37872 2.054461,-1.984758 0.411814,-0.606042 0.990698,-1.23729 1.286406,-1.402774 1.201834,-0.67258 6.180045,-5.992256 6.181184,-6.605162 0.0013,-0.660992 0.441629,-1.41919 2.383549,-4.103536 0.612381,-0.846502 1.200666,-2.070502 1.307303,-2.72 0.106633,-0.649494 0.536147,-2.141171 0.95447,-3.314838 0.494941,-1.388621 0.838429,-3.264125 0.983456,-5.369805 0.122576,-1.779725 0.345978,-3.311952 0.496445,-3.404944 0.539622,-0.333507 0.08881,-12.113619 -0.641818,-16.771312 -0.355369,-2.265459 -1.579619,-6.094503 -2.156621,-6.745197 -0.24639,-0.277859 -0.44798,-0.68986 -0.44798,-0.91556 0,-0.561213 -3.055133,-5.611686 -4.458263,-7.369998 -2.369337,-2.969109 -2.120976,-2.749465 -6.421737,-5.679177 -0.44,-0.299732 -1.257303,-0.932823 -1.816231,-1.406871 -0.558928,-0.474048 -1.492816,-0.96658 -2.075305,-1.094517 -0.582493,-0.127936 -1.349191,-0.420429 -1.70377,-0.649983 -0.993789,-0.643372 -5.446713,-2.058697 -6.477117,-2.058697 -0.505766,0 -1.073769,-0.154192 -1.262227,-0.342648 -0.864499,-0.864502 -13.040022,-0.281587 -14.935043,0.715029 -0.324329,0.17057 -1.963689,0.733071 -3.643024,1.250002 -3.760246,1.157477 -7.047778,2.743002 -7.293626,3.517603 -0.127755,0.402518 -0.741606,0.696697 -1.998048,0.957533 -1.41835,0.294448 -2.045345,0.629987 -2.87674,1.539495 -0.584706,0.639642 -1.41765,1.528408 -1.850986,1.975035 -0.433335,0.446627 -0.787883,0.925257 -0.787883,1.063622 0,0.290385 -3.058434,4.101904 -4.335994,5.403655 -1.937051,1.97373 -4.694408,6.605794 -5.095963,8.560674 -0.126534,0.616 -0.504107,1.59623 -0.839052,2.178291 -0.334945,0.582061 -0.608991,1.320474 -0.608991,1.640922 0,0.907161 -0.837378,2.690624 -1.578024,3.360899 -0.5153101,0.466349 -0.6269741,0.841049 -0.4815892,1.616016 0.1319783,0.703504 -0.022419,1.415033 -0.5100739,2.350617 -0.4868214,0.933988 -0.6545004,1.705101 -0.5517785,2.537488 0.1029657,0.834359 -0.053769,1.551088 -0.5185795,2.371399 -0.5776192,1.019398 -0.6156352,1.317081 -0.2860634,2.24 0.2090454,0.585401 0.3757731,2.60967 0.3705059,4.498374 -0.00527,1.888704 0.058779,3.544704 0.1423239,3.68 0.083545,0.135296 0.055481,1.485443 -0.062365,3.000327 -0.1587193,2.040304 -0.1092851,2.852396 0.1906896,3.132617 0.2227252,0.208055 0.4049546,0.864775 0.4049546,1.459373 0,0.594602 0.3427757,1.776925 0.7617241,2.627386 0.7238664,1.46944 1.3298814,3.701356 1.2095564,4.454716 -0.03061,0.191636 0.233333,0.609956 0.586535,0.929597 0.353201,0.319645 0.64619,0.810851 0.651087,1.091575 0.0049,0.28072 0.436896,1.076054 0.96,1.767408 0.523103,0.691353 0.951097,1.425228 0.951097,1.630835 0,0.613654 0.909236,2.247027 1.597622,2.870009 0.353308,0.319738 0.642378,0.8229 0.642378,1.118135 0,0.538086 0.703586,1.107075 4.369477,3.533593 1.237015,0.818804 2.042602,1.594983 2.166097,2.087028 0.108141,0.430867 0.345516,0.783395 0.5275,0.783395 0.181984,0 0.860668,0.36 1.508186,0.8 0.647519,0.44 1.414247,0.8 1.703841,0.8 0.289594,0 0.717218,0.22976 0.950274,0.510576 0.311212,0.374985 0.74043,0.459933 1.616273,0.319881 1.049453,-0.167814 1.333617,-0.05764 2.368446,0.918336 1.436968,1.355236 1.947372,1.533447 3.289458,1.148544 0.791405,-0.226972 1.488275,-0.153865 2.872662,0.301357 2.488669,0.818343 5.073293,0.81888 6.307786,0.0013 z"
         id="path191" />
    </g>
  </g>
</svg>
